<svg xmlns="http://www.w3.org/2000/svg" viewBox="0 0 512 512"><defs><style>.cls-1,.cls-2,.cls-3{fill:#00664f;}.cls-1{opacity:0.2;}.cls-2{opacity:0.15;}</style></defs><title>update</title><g id="Calque_2" data-name="Calque 2"><g id="Calque_1-2" data-name="Calque 1"><circle class="cls-1" cx="256" cy="256" r="256"/><path class="cls-2" d="M512,256c0,141.39-114.61,256-256,256V0C397.39,0,512,114.61,512,256Z"/><path class="cls-3" d="M334.32,256.43c.27,3.68.7,5.79.54,7.86-4.12,51-58.73,87.42-107.83,72.49-5.09-1.55-14-1.91-16.38,1-9.8,12.17-17.76,25.82-26.93,39.75,41.14,20.77,81.29,25.49,122,8.1,56.44-24.12,83.19-69.63,87.63-129.24L420.6,255l-56.3-83.22-56.16,83.37ZM139.25,338.52c17.62-26,33.69-49.66,49.69-73.37,1.39-2.06,2.29-4.45,4.08-8l-23.79-1.34a37.05,37.05,0,0,1-.85-4.86c.53-52.24,54.88-90.85,105.46-75.43,6.12,1.87,16.63,2.93,19.46-.42,10.44-12.33,18.5-26.68,27.8-40.78-42.8-23.77-85.07-24-127-5-53.53,24.29-78.26,69-82.94,126.3l-25.76,2Z"/><path class="cls-3" d="M334.32,256.43l-26.18-1.28,56.16-83.37L420.6,255l-27.27,1.41c-4.44,59.61-31.2,105.12-87.63,129.24-40.69,17.39-80.84,12.66-122-8.1,9.17-13.92,17.13-27.57,26.93-39.75,2.36-2.94,11.29-2.58,16.38-1,49.1,14.93,103.7-21.53,107.83-72.49C335,262.23,334.59,260.11,334.32,256.43Z"/><path class="cls-3" d="M139.25,338.52,85.4,257.63l25.76-2c4.68-57.32,29.41-102,82.94-126.3,41.94-19,84.2-18.79,127,5-9.3,14.1-17.36,28.45-27.8,40.78-2.83,3.34-13.34,2.28-19.46.42-50.58-15.42-104.93,23.19-105.46,75.43a37.05,37.05,0,0,0,.85,4.86L193,257.12c-1.8,3.58-2.69,6-4.08,8C172.94,288.86,156.87,312.52,139.25,338.52Z"/></g></g></svg>